<?xml version="1.0" encoding="utf-8"?>
<!-- Generator: Adobe Illustrator 18.1.1, SVG Export Plug-In . SVG Version: 6.00 Build 0)  -->
<svg version="1.1" baseProfile="tiny" id="Layer_1" xmlns="http://www.w3.org/2000/svg" xmlns:xlink="http://www.w3.org/1999/xlink"
	 x="0px" y="0px" viewBox="0 0 792 612" xml:space="preserve">
<path fill="none" stroke="#FFFFFF" stroke-width="4" stroke-miterlimit="10" d="M594.3,319l-0.2-12.2l6.8-3.7
	C601,303.2,599.7,314.5,594.3,319z"/>
<path fill="none" stroke="#FFFFFF" stroke-width="4" stroke-miterlimit="10" d="M595,266c-1.6-0.8-0.3,32-0.3,32l9-7.7
	C603.7,290.3,605.5,271.3,595,266z"/>
<path fill="none" stroke="#FFFFFF" stroke-width="4" stroke-miterlimit="10" d="M593.7,320.2c0,0-8.2,9.8-9.5,9.2
	c-1.3-0.7-36.2-2.7-36.2-2.7s-38.2-50.3,15.5-68.8c0,0,17.8-3.8,30.8,7.2L593.7,320.2z"/>
<path fill="none" stroke="#FFFFFF" stroke-width="4" stroke-miterlimit="10" d="M448.5,289l45.3,11.7l-0.2-34.2
	C493.7,266.5,461.7,247.7,448.5,289z"/>
<path fill="none" stroke="#FFFFFF" stroke-width="4" stroke-miterlimit="10" d="M493.5,310.5l-45.3-8.5c0,0,4.8,54.2,44.5,25
	L493.5,310.5z"/>
<path fill="none" stroke="#FFFFFF" stroke-width="4" stroke-miterlimit="10" d="M493.8,300.7l-0.3,9.8l0.2-44.8
	c0,0,32.2,21.2-1,61.3"/>
<path fill="none" stroke="#FFFFFF" stroke-width="4" stroke-miterlimit="10" d="M495.5,262.8L496,195c0,0,58.5-15,98.5,3
	c0,0-0.6,58.7-1.6,58.2c-0.6-0.3-1.4-0.6-2.4-1c-3.5-1.4-9.1-3.2-15.6-4c-9-1.1-19.8-0.4-29.7,5.8c0,0-13.3,12.5-13.8,18
	c0,0-9-1.5-21.5,2c0,0-37-50-68,6.5c0,0-9,12.5-1,18c0,0,6.5,36,22.5,36s50-3.5,50.5-48.5c0,0,6-8.5,13.5-1c0,0,1.5,32.5,15.5,39
	l47,3.5c0,0,18.5-15.5,18.5-31.5l9.5-6.5c0,0,6-4.5,0.5-10s-10-3.5-10-3.5s-5-18.2-14.5-21.5"/>
<path fill="none" stroke="#FFFFFF" stroke-width="4" stroke-miterlimit="10" d="M381,349c0,0-13,27-1,35l167-20c0,0-4-16,9-35
	L381,349z"/>
<path fill="none" stroke="#FFFFFF" stroke-width="4" stroke-miterlimit="10" d="M547,364l143,15c0,0-11-15,1-33l-135-17"/>
<path fill="none" stroke="#FFFFFF" stroke-width="4" stroke-miterlimit="10" d="M401,386c0,0-13,15-1,40l122-13c0,0-8-16-3-42
	L401,386z"/>
<path fill="none" stroke="#FFFFFF" stroke-width="4" stroke-miterlimit="10" d="M396,430c0,0-12,23,0,40l153-11c0,0-14-14,1-44
	L396,430z"/>
<path fill="none" stroke="#FFFFFF" stroke-width="4" stroke-miterlimit="10" d="M549,459l150,6l10-6c0,0-20-12-3-30l-13-7l-143-7"/>
<path fill="none" stroke="#FFFFFF" stroke-width="4" stroke-miterlimit="10" d="M522,413l171,9c0,0-18-12-3-43l-171-8"/>
<path fill="none" stroke="#FFFFFF" stroke-width="4" stroke-miterlimit="10" d="M396,470c0,0-6,33,4,39l134-1c0,0-6-42,3-47L396,470
	z"/>
<path fill="none" stroke="#FFFFFF" stroke-width="4" stroke-miterlimit="10" d="M534,508l162,2c0,0-16-27,0-40l-159-9"/>
<line fill="none" stroke="#FFFFFF" stroke-width="4" stroke-miterlimit="10" x1="710" y1="511" x2="190" y2="509"/>
</svg>
