<?xml version="1.0" encoding="utf-8"?>
<!-- Generator: Adobe Illustrator 18.1.1, SVG Export Plug-In . SVG Version: 6.00 Build 0)  -->
<svg version="1.1" id="Layer_1" xmlns="http://www.w3.org/2000/svg" xmlns:xlink="http://www.w3.org/1999/xlink" x="0px" y="0px"
	 viewBox="0 0 417.6 295.2" enable-background="new 0 0 417.6 295.2" xml:space="preserve" width="140px" height="150px">
<g>
	<linearGradient id="SVGID_1_" gradientUnits="userSpaceOnUse" x1="100.8181" y1="147.5771" x2="182.3037" y2="147.5771">
		<stop  offset="0" style="stop-color:#FFFFFF"/>
		<stop  offset="0.7347" style="stop-color:#EF3C37"/>
	</linearGradient>
	<path fill="url(#SVGID_1_)" d="M102.8,97.1c0,0,0.5,0.1,1.5,0.4c0.9,0.3,2.4,0.7,4.1,1.3c1.7,0.7,4,1.5,6.3,2.6
		c2.4,1.1,5,2.5,7.8,4.2c1.4,0.9,2.8,1.8,4.2,2.8c1.4,1.1,2.9,2.1,4.4,3.3c2.9,2.4,5.9,5.1,8.6,8.1c0.7,0.8,1.4,1.5,2.1,2.3
		c0.7,0.8,1.3,1.6,2,2.5c1.4,1.6,2.6,3.4,3.8,5.2c0.6,0.9,1.2,1.8,1.8,2.8c0.6,0.9,1.2,1.9,1.7,2.8l1.6,2.9l0.8,1.5l0.7,1.5l1.4,3
		c0.4,1,0.8,2.1,1.2,3.1c0.8,2.1,1.4,4.2,2.1,6.3l0.2,0.8l0.1,0.4l0.1,0.4l0.4,1.5c0.2,1,0.5,2.1,0.7,3.1c0.4,2,0.8,4,1.3,5.9
		c0.8,3.8,1.5,7.3,2.5,10.5c1,3.2,2,5.9,3.4,8.3c1.4,2.4,3,4.5,4.6,6.1c1.6,1.6,3.2,2.8,4.7,3.6c0.7,0.4,1.4,0.7,2.1,1
		c0.6,0.2,1.2,0.4,1.6,0.6c0.9,0.2,1.5,0.4,1.5,0.4l0.1,1c0,0-0.5,0.2-1.6,0.4c-0.5,0.1-1.2,0.2-2,0.2c-0.8,0-1.7,0-2.7-0.1
		c-2-0.3-4.5-1-7.1-2.4c-1.3-0.7-2.6-1.6-3.8-2.6c-1.2-1-2.5-2.2-3.7-3.6c-0.6-0.7-1.1-1.4-1.7-2.2c-0.6-0.8-1.2-1.7-1.5-2.4
		l-0.3-0.6l-0.1-0.1l-0.1-0.3l-0.2-0.3c-0.2-0.4-0.4-0.9-0.7-1.3c-0.4-0.9-0.8-1.8-1.2-2.7c-1.5-3.7-2.5-7.6-3.3-11.5
		c-0.4-1.9-0.8-3.9-1.2-5.9c-0.2-0.9-0.4-1.9-0.6-2.9l-0.4-1.5l-0.1-0.4l-0.1-0.3l-0.2-0.7c-0.5-1.9-1-3.8-1.7-5.6
		c-0.3-0.9-0.6-1.9-1-2.8l-1.1-2.8l-0.6-1.4l-0.6-1.4l-1.3-2.7c-0.4-0.9-0.9-1.8-1.4-2.6c-0.5-0.9-0.9-1.8-1.4-2.6
		c-1-1.7-2-3.4-3.1-5c-0.5-0.8-1.1-1.6-1.6-2.4c-0.6-0.8-1.2-1.5-1.7-2.3c-1.1-1.5-2.3-2.9-3.5-4.3c-0.3-0.4-0.6-0.7-0.9-1
		c-0.3-0.3-0.6-0.7-0.9-1c-0.6-0.7-1.2-1.3-1.8-1.9c-1.2-1.3-2.5-2.4-3.6-3.6c-1.2-1.1-2.4-2.1-3.6-3.2c-2.4-1.9-4.6-3.7-6.7-5.1
		c-2-1.5-3.9-2.6-5.4-3.6c-1.5-1-2.9-1.7-3.7-2.2c-0.9-0.5-1.3-0.8-1.3-0.8L102.8,97.1z"/>
</g>
<g>
	<linearGradient id="SVGID_2_" gradientUnits="userSpaceOnUse" x1="143.401" y1="187.4397" x2="225.274" y2="187.4397">
		<stop  offset="0.2449" style="stop-color:#EF3C37"/>
		<stop  offset="1" style="stop-color:#FFFFFF"/>
	</linearGradient>
	<path fill="url(#SVGID_2_)" d="M144.7,131c0,0,0.5-0.3,1.5-0.9c0.5-0.3,1.2-0.6,2.1-0.9c0.9-0.4,1.9-0.5,3.1-0.7
		c2.3-0.3,5.3-0.1,8.5,0.8c3.2,0.9,6.5,2.7,9.6,5.3c3.1,2.6,5.9,6,8,10.1c0.3,0.5,0.5,1,0.8,1.6l0,0.1l0.1,0.2l0.1,0.2l0.1,0.4
		l0.3,0.7l0.3,0.7l0.3,0.8c0.2,0.6,0.4,1.1,0.6,1.7c0.7,2.2,1.4,4.4,1.9,6.7c1,4.5,1.7,9.1,2.3,13.7c0.6,4.5,1.2,9,2,13.3
		c0.2,1.1,0.4,2.3,0.7,3.4c0.3,1,0.5,2.1,0.8,3.1c0.3,1,0.6,2.1,0.9,3.2c0.3,1.1,0.6,2.1,1,3.1c1.4,4.2,3.1,8.1,4.9,11.9
		c1.8,3.8,3.8,7.3,5.9,10.6c1,1.7,2.1,3.2,3.1,4.7c1.1,1.5,2.1,2.9,3.2,4.3c1.1,1.3,2.1,2.6,3.1,3.8c1,1.2,2,2.3,2.9,3.3
		c1,1,1.9,2,2.7,2.8c0.9,0.8,1.7,1.6,2.4,2.3c1.4,1.4,2.7,2.4,3.4,3.2c0.8,0.7,1.2,1.1,1.2,1.1l-0.6,0.8c0,0-0.5-0.3-1.5-0.8
		c-0.9-0.6-2.4-1.3-4.1-2.5c-0.9-0.6-1.8-1.2-2.8-1.9c-1-0.7-2.1-1.6-3.2-2.4c-1.1-0.9-2.3-1.9-3.6-2.9c-1.2-1-2.5-2.3-3.8-3.5
		c-1.3-1.2-2.5-2.6-3.9-4c-1.3-1.5-2.6-2.9-3.9-4.6c-0.6-0.8-1.3-1.6-1.9-2.5c-0.7-0.8-1.2-1.7-1.9-2.6c-1.3-1.8-2.4-3.6-3.6-5.6
		c-2.3-3.9-4.5-8-6.3-12.5c-0.5-1.1-0.9-2.2-1.3-3.3c-0.4-1.1-0.9-2.2-1.2-3.4c-0.4-1.2-0.7-2.4-1.1-3.6c-0.4-1.2-0.6-2.3-0.9-3.4
		c-1.3-4.8-2-9.5-2.8-14c-0.7-4.5-1.5-8.8-2.5-12.7c-0.5-2-1-3.8-1.7-5.6c-0.2-0.4-0.3-0.8-0.5-1.2l-0.2-0.6l-0.3-0.7
		c-0.2-0.4-0.4-0.8-0.6-1.3c-0.2-0.4-0.4-0.7-0.6-1.1c-0.4-0.8-0.8-1.4-1.2-2.2c-0.5-0.7-0.9-1.4-1.3-2c-0.5-0.6-0.9-1.3-1.4-1.9
		c-0.2-0.3-0.5-0.6-0.7-0.9c-0.2-0.3-0.5-0.6-0.7-0.8c-1.9-2.2-4-4-5.9-5.4c-2-1.4-3.9-2.4-5.6-3.1c-0.8-0.3-1.7-0.6-2.3-0.8
		c-0.7-0.2-1.3-0.4-1.9-0.4c-1.1-0.1-1.8-0.3-1.8-0.3L144.7,131z"/>
</g>
</svg>
