<?xml version="1.0" encoding="utf-8"?>
<!-- Generator: Adobe Illustrator 18.1.1, SVG Export Plug-In . SVG Version: 6.00 Build 0)  -->
<svg version="1.1" baseProfile="tiny" id="Layer_1" xmlns="http://www.w3.org/2000/svg" xmlns:xlink="http://www.w3.org/1999/xlink"
	 x="0px" y="0px" viewBox="0 0 250 100" xml:space="preserve">
<g>
	<text transform="matrix(0.7984 0 0 1 2.2098 60.6591)" font-family="'Centaur'" font-size="66.6385">F</text>
	<text transform="matrix(0.7984 0 0 1 28.577 60.6591)" font-family="'Centaur'" font-size="66.6385">r</text>
	<text transform="matrix(0.7984 0 0 1 44.4749 60.6591)" font-family="'Centaur'" font-size="66.6385">e</text>
	<text transform="matrix(0.7984 0 0 1 63.9061 60.6591)" font-family="'Centaur'" font-size="66.6385">s</text>
	<text transform="matrix(0.7984 0 0 1 81.1028 60.6591)" font-family="'Centaur'" font-size="66.6385">h</text>
	<text transform="matrix(0.7984 0 0 1 106.0672 60.6591)" font-family="'Centaur'" font-size="66.6385">e</text>
	<text transform="matrix(0.7984 0 0 1 125.4983 60.6591)" font-family="'Centaur'" font-size="66.6385">r</text>
	<text transform="matrix(0.7984 0 0 1 140.6692 60.6591)" font-family="'Centaur'" font-size="66.6385">.</text>
	<text transform="matrix(0.7984 0 0 1 2.2098 60.6591)" fill="#F1F2F2" font-family="'Centaur'" font-size="66.6385">F</text>
	<text transform="matrix(0.7984 0 0 1 28.577 60.6591)" fill="#F1F2F2" font-family="'Centaur'" font-size="66.6385">r</text>
	<text transform="matrix(0.7984 0 0 1 44.4749 60.6591)" fill="#F1F2F2" font-family="'Centaur'" font-size="66.6385">e</text>
	<text transform="matrix(0.7984 0 0 1 63.9061 60.6591)" fill="#F1F2F2" font-family="'Centaur'" font-size="66.6385">s</text>
	<text transform="matrix(0.7984 0 0 1 81.1028 60.6591)" fill="#F1F2F2" font-family="'Centaur'" font-size="66.6385">h</text>
	<text transform="matrix(0.7984 0 0 1 106.0672 60.6591)" fill="#F1F2F2" font-family="'Centaur'" font-size="66.6385">e</text>
	<text transform="matrix(0.7984 0 0 1 125.4983 60.6591)" fill="#F1F2F2" font-family="'Centaur'" font-size="66.6385">r</text>
	<text transform="matrix(0.7984 0 0 1 140.6692 60.6591)" fill="#F1F2F2" font-family="'Centaur'" font-size="66.6385">.</text>
</g>
</svg>
