<?xml version="1.0" encoding="utf-8"?>
<!-- Generator: Adobe Illustrator 18.1.1, SVG Export Plug-In . SVG Version: 6.00 Build 0)  -->
<svg version="1.1" id="Layer_1" xmlns="http://www.w3.org/2000/svg" xmlns:xlink="http://www.w3.org/1999/xlink" x="0px" y="0px"
	 viewBox="0 0 417.6 295.2" enable-background="new 0 0 417.6 295.2" xml:space="preserve" width="400px" height="600px">
<path fill="#FFFFFF" stroke="#000000" stroke-width="2" stroke-miterlimit="10" d="M121.3,58.5l8.8-17.5c0,0,2.8-7.6,5.3-8
	s6.5-1.2,8.7-0.8c2.2,0.3,0,1.2,0,1.2l3.3,0.3h3.7l4.2,1l5.5,2.3l3.3,2.2l2.8,2.5l2.3,2.6l4.3,4.8v4.7L168,56l-4.5,1.5
	c0.5,1.8,0.5,1.8,0.5,1.8h1.8l6.2-1.8c0,0,3.5-2.5,5.7-2c2.2,0.5,3,2.5,1.8,3s-4,1.8-4,1.8l-3.7,1.5c0,0-6.2,2-10.7,0
	s-6.3-4.3-7-5.7c-0.7-1.3-2.3-4-3.5-2.7s-2,3.5-4.8,4c-2.8,0.5-6.3,3.6-6.8,5.2c-0.5,1.6-1,5.8-3,6.1c-2,0.3-4.5,0.2-4.7-3.7
	c-0.2-3.8-1.5-7.5-5.7-6.7s-2.8,10.7-2,11.3c0.8,0.7,3.8,5,2,5.5c-1.8,0.5-4.3-2.8-4.3-2.8s-0.7,12.2,0,14.2c0.7,2,2,9.5,4.8,10.5
	c2.8,1,10.2-1,10.7-2s6.8,4.3,6.8,4.3s3.7,0.8,6.9,0s5.6-6.5,8.1-9.5s12.3-18.8,12-21c-0.3-2.2,5.7-7.3,6.7-7.2
	c1,0.2,8.8-5.2,8.2-6.2s-1.8-1.8-1.8-1.8s-13.2-10.2-15.5-17c-2.3-6.8-13.3-8.8-17-8.2c-3.7,0.7-13.3,3.5-15.7,2.2
	s-8.8,5.3-12.2,11.5c-3.3,6.2-4.7,17-3.3,17.7S121.3,58.5,121.3,58.5z"/>
<path fill="#FFFFFF" stroke="#000000" stroke-width="2" stroke-miterlimit="10" d="M119.5,61c0,0,0.7,0.5,1,1.8s1.2,0.3,1,4.2
	s0,5-2,5.3c-2,0.3-3,2-2.3-1.7c0.7-3.7,0-1.3,1.2-5.5C119.5,61,119.5,61,119.5,61z"/>
<path fill="#FFFFFF" stroke="#000000" stroke-width="2" stroke-miterlimit="10" d="M86.5,93.5c1.7-2.8,14.3-11.7,18.2-11.3
	c3.8,0.3,10.8-6.2,12.3-8.2c0,0,1.5,1.7,0.9,5.3c-0.7,3.7,0.4,7.4,3,10.8c2.6,3.5,2.6,3.5,2.6,3.5s2.4,5,4.4,6.2
	c2,1.3,12.7,4.6,13.3,8.1c0.7,3.5,4.7,5.7,6.8,6.2s2.5,1.3,2.5,1.3s0.5,2-1.7,6.3c-2.2,4.3-6,20.2-4.7,23.7c1.3,3.5-1,8.8-3.5,10.5
	s-6.2-2.8-6-8.4c0.2-5.6-2.2-26.1-5-26.1c-1.5,0-3.7-3.3-5.9-7.8c-2.1-4.2-4.1-9.5-5.2-13.8c-2.4-9-0.5-12.7-0.9-13.5
	c-0.3-0.8-0.7-6.3-0.7-6.3s-4,0.5-6.1,11.3c-2.2,10.8,1.3,17.7,2.7,18.2s6.7,3.3,9.5,5.7c2.8,2.4,7.5,18.2,6.5,27.2
	s-2.8,2.5-6.5,12.5c-3.2,8.7-1.5,6.8-3.5,10.5c-2,3.7-3,1.8-6.8,1.3c-3.8-0.5-27-0.2-27-0.2s-6.7,0.8-2.2-10.2s12-28.2,12-28.2
	s2.5-16.3-5.3-5.3s-4,12.8-3.7,14.3s-1,13.8-4.8,11.8c0,0-7.7-3.8-8.7-2.7c-1,1.2-6.5-2.2-4.3,2.5c2.2,4.7,10,5.2,10,5.2
	s6.5,3.3-4.3,2.7C63.5,156,61.8,159,59,159.2c-2.8,0.2-7.2,7,0,5.7c7.2-1.3,12.5-7,15.8-5.5c3.3,1.5,10.7-0.3,0.8,3.5
	c-9.8,3.8-19.3,7.3-17.8,12.3s1.7,17.7,1.7,17.7s4.7,19.8,18.3,24.7s7,4.8,23.5,6.2c16.5,1.3,23.2-4.5,30.5-6.7
	c7.3-2.2,18.5-6.7,23.8-7.3c5.3-0.7,6.7-1.8,6.7-1.8l15.7,0.3c0,0-2-4.3,2.5-7c4.5-2.7-0.7-9.3-4.5-2.5c-3.8,6.8-7,3.3-1.5-5.8
	c5.5-9.2,1.2-12.3-2.7-3c-3.8,9.3-4,20-6.5,11.3c-2.5-8.7,0.7-14.3,1.5-18.3c0.8-4-8.5,6.7-6.3,11.5c2.2,4.8,4.8,14.3-3.5,20.7
	s-24,6.3-33.8,7.8s-13.8-2.7-15.7-11.2s1.5-20.8,9.2-22.3s10.5-18.5,8.8-19.2c-1.7-0.7-4-8.8-5.8,2.2c-1.8,11-2.5,22.7-2.5,22.7
	L89,195.7c0,0-22-4.3-28.5-11.3S53.2,181,47.7,170s4.5-10.6,4.5-21.1c0-10.4-3.2-8.8,5.2-18.1c8.3-9.3,2.3-9.8,7.5-17.2
	c5.2-7.3,6.7-10.5,12.7-14.7S86.5,93.5,86.5,93.5z"/>
<path fill="#FFFFFF" stroke="#000000" stroke-width="2" stroke-miterlimit="10" d="M154.3,97.2l-0.3,9.3c0,0,0,4.5-2,7.5
	s-1.5,9-1.2,11.8c0.3,2.8-1.8,7.3-2.7,10.8c-0.8,3.5-2.3,16.3,7.3,16.5c9.7,0.2,13-1,13-1s-3.7-2-3.7-6.8c0-4.8-3.3-2.7-3.8-2.7
	s6.2-5.5,2.2-11.2c-4-5.7,1.2-9.7,1.7-12s1.8-23.5-3-23.7C157,95.7,160.3,87.8,154.3,97.2z"/>
<path fill="#FFFFFF" stroke="#000000" stroke-width="2" stroke-miterlimit="10" d="M169.3,152.2c0,0,2.2,2.3,1.7,3.5
	c-0.5,1.2-18.2-2-25.7,3.3s-21.8,4.8-23.3,12.7c-1.5,7.8,10.3,2.7,16.3,0c6-2.7,28.5-9.2,18.7-11.7s12,1.3,13.8,1.2
	c1.8-0.2,0-4.5,0-4.5l-0.7-5c0,0,7.8-1,4.7,5.8c-0.8,1.7-1.5,3-2.2,3.9c-0.5,0.7-1,1.2-1.4,1.6c-1.2,1.2-1.9,1.1-1.9,1.1l-20.8,4.2
	c0,0-23.5,2.2-18.3,9.3c5.2,7.2,25.5-7.3,38-7.3s6.8-7.7,6.7-7.7c-0.1,0-1.4-0.3-2.9,0.2c-1.4,0.4-2.9,1.4-3.6,3.8
	c-1.3,5,14,1.8,14,1.8s18.2-6.7,29.7-7.3c11.5-0.7,10.7,0,11.5-0.7s10.3-1.2,12.8-12.3c2.5-11.2,6.3-14.3,8-21
	c1.7-6.7,5-22.2,5-22.2s-6.8-2.2-26.7,2.7c-19.8,4.8-28.5-0.5-36.3,17.5c-7.8,18-10.2,28.3-10.2,28.3l-3.3,8.5c0,0,2.5,3.7,7.3-11.2
	C185,136,185,136,185,136s3.8-19,12-19.7c8.2-0.7,41.3-8.5,45-7.2c3.7,1.3,2.3,4,1.2,11.2c-1.2,7.2-9.3,23.5-9.8,25.3
	c-0.5,1.8-4.2,9.8-12.7,11.2c-8.5,1.3-34.8,4.8-42.2,7.5c-7.3,2.7-4.5-1-4.5-1l-2.2,0.7v4.2l4.2,2.2c0,0,9.5-4,16.8,5.5
	c7.3,9.5,11,21.2,23.7,36.5s24,22,19.5,27.7s-7.2,4-4.7,13s4.5,8.2,3.3,11c-1.2,2.8-6.7,8.3-6.8,0.7c-0.2-7.7,13.3-17.5,13.3-17.5
	s13.3-7.2-1.2-5.3c-14.5,1.8-13.8,27.2-13.8,27.2s-12.3-4.3-22.5-18.3c-10.2-14-8.3-12.8-17.5-21.5c-9.2-8.7,0.3-11.2-9.7-18.2
	s-9.5,4.5-17.7,6.3c-8.2,1.8-8.2,8.2-38.7,8.2S23,225,23,225"/>
<path fill="#FFFFFF" stroke="#000000" stroke-width="2" stroke-miterlimit="10" d="M197,164.5c0,0,15.3-4.3,22.5,5.8
	s9.8,14.8,17.5,23s24.8,24,24.8,31s10.5,10,14.5,16.5s8.5,12,33.3,17.8s18,8.5,16.5,11.5s-17.8,4.5-17.8,4.5s-9.5-1.3,3.5-3.5
	s12.5-8-5.8-10.3s-11.5,1-24.5-10.8s-18.3-7-15,3.3s24.3,10.3,26.3,10.5s21.3-0.5,21.3-0.5s19.8,1.8,0.5,3S284,268.5,281,269
	s-9,8.8,5.3,8.5s39.5-5.8,44-3.8s43.3,0.5,43.3,0.5h35"/>
<path fill="#FFFFFF" stroke="#000000" stroke-width="2" stroke-miterlimit="10" d="M200.3,185.8c0,0,5-21.3,5.8,0.8s2.8,9.8,5,5.8
	s2.5,10.3,5.5,14.8s26.8,27.3,35.5,24s21.5,2.5,15.8,7.8s-14.5,7.3-5.3,0s2.3-2.3-9.8,0s-5,1.3-10.3-2s-14.3-12.5-14.3-12.5"/>
<path fill="#FFFFFF" stroke="#000000" stroke-width="2" stroke-miterlimit="10" d="M246.3,244c0,0,10.3-2.5,12.8,5
	s14.3,16.8,15.5,16.8s18.5,9.5,2.8,11.8s-20.8,14-38.3,3.3s7.8-7,9-3.8s9.3,3.3,17.5-1.3s16.8-2.5,1.3-5.5s-28.8,10-31.3-2
	s0.8-15.8,0.8-15.8L246.3,244z"/>
</svg>
